<?xml version='1.0' encoding='utf-8'?>
<svg xmlns="http://www.w3.org/2000/svg" width="210mm" height="297mm" viewBox="0 0 210 297" version="1.1" id="svg5"> <defs id="defs2"> <filter style="color-interpolation-filters:sRGB" id="filter9420" x="-0.02376216" y="-0.031638087" width="1.0475243" height="1.0632762"> <feGaussianBlur stdDeviation="0.76398716" id="feGaussianBlur9422"/> </filter> </defs> <g id="layer1"> <circle style="opacity:1;fill:#fbd841;fill-opacity:1;stroke-width:6.85364" id="path887" cx="104.29206" cy="145.37965" r="95.597939"/> <circle style="opacity:1;fill:#febd3b;fill-opacity:1;stroke:#dd9b2d;stroke-width:5.65852;stroke-opacity:1" id="circle4454" cx="103.76289" cy="145.90889" r="78.927834"/> <ellipse style="opacity:0.950192;mix-blend-mode:normal;fill:#ffcc45;fill-opacity:1;stroke:none;stroke-width:7.30932;stroke-opacity:1;filter:url(#filter9420)" id="path6625" transform="matrix(0.82849526,-0.61074452,0.45665069,0.97978543,-9.7708009,4.2475373)" ry="28.977245" rx="38.581703" cy="137.58839" cx="29.375999"/> <path style="opacity:0.950192;fill:#ffcc45;fill-opacity:1;stroke:none;stroke-width:18.8976;stroke-opacity:1" id="path10783" d="m -136.29678,-403.74706 -45.61737,-42.22699 -50.81903,35.79789 42.22699,-45.61737 -35.79789,-50.81903 45.61737,42.22699 50.81903,-35.79789 -42.22699,45.61737 z" transform="matrix(0.19640812,0.17727998,-0.17727998,0.19640812,15.070991,160.30636)"/> <path style="opacity:0.950192;fill:#ffcc45;fill-opacity:1;stroke:none;stroke-width:18.8976;stroke-opacity:1" id="path10967" d="m -136.29678,-403.74706 -45.61737,-42.22699 -50.81903,35.79789 42.22699,-45.61737 -35.79789,-50.81903 45.61737,42.22699 50.81903,-35.79789 -42.22699,45.61737 z" transform="matrix(0.12093615,0.10915821,-0.10915821,0.12093615,62.498887,98.776811)"/> <path style="opacity:0.6743295;fill:#ffcc45;fill-opacity:1;stroke:none;stroke-width:18.8976;stroke-opacity:1" id="path10969" d="m -136.29678,-403.74706 -45.61737,-42.22699 -50.81903,35.79789 42.22699,-45.61737 -35.79789,-50.81903 45.61737,42.22699 50.81903,-35.79789 -42.22699,45.61737 z" transform="matrix(0.19640812,0.17727998,-0.17727998,0.19640812,-22.011484,145.33729)"/> <text style="font-style:normal;font-variant:normal;font-weight:normal;font-stretch:normal;font-size:83.1426px;line-height:1.25;font-family:'Brush Script MT';-inkscape-font-specification:'Brush Script MT';fill:#fff39b;fill-opacity:1;stroke:none;stroke-width:2.07856" x="50.153107" y="168.4093" id="text11243"><tspan id="tspan11241" style="font-style:normal;font-variant:normal;font-weight:normal;font-stretch:normal;font-family:'Brush Script MT';-inkscape-font-specification:'Brush Script MT';stroke-width:2.07856;fill:#fff39b;fill-opacity:1" x="50.153107" y="168.4093">10%</tspan></text> <text style="font-style:normal;font-variant:normal;font-weight:normal;font-stretch:normal;font-size:83.1426px;line-height:1.25;font-family:'Brush Script MT';-inkscape-font-specification:'Brush Script MT';fill:#ffeeaa;fill-opacity:1;stroke:none;stroke-width:2.07856" x="50.682274" y="168.4093" id="text17103"><tspan id="tspan17101" style="font-style:normal;font-variant:normal;font-weight:normal;font-stretch:normal;font-family:'Brush Script MT';-inkscape-font-specification:'Brush Script MT';fill:#ffeeaa;fill-opacity:1;stroke-width:2.07856" x="50.682274" y="168.4093">10%</tspan></text> <path style="opacity:0.950192;fill:#ffcc45;fill-opacity:1;stroke:none;stroke-width:18.8976;stroke-opacity:1" id="path21470" d="m -136.29678,-403.74706 -45.61737,-42.22699 -50.81903,35.79789 42.22699,-45.61737 -35.79789,-50.81903 45.61737,42.22699 50.81903,-35.79789 -42.22699,45.61737 z" transform="matrix(0.19640812,0.17727998,-0.17727998,0.19640812,137.20501,359.66718)"/> </g> </svg>