<?xml version='1.0' encoding='utf-8'?>
<svg xmlns="http://www.w3.org/2000/svg" version="1.1" width="1080px" height="2132px" viewBox="0 0 1080 2132"> <g id="layer1"> <g style="fill:rgb(255,255,255); fill-opacity:1.0; stroke-linejoin: miter"> <path d="M-152.00099,558.343C-152.17496,558.343,-152.3418,558.4122,-152.46481,558.53516C-152.58783,558.65814,-152.65695,558.825,-152.65695,558.99896L-152.65594,1546.9999C-152.65594,1547.3622,-152.36226,1547.6559,-151.99998,1547.6559L1231.0009,1547.6569C1231.1748,1547.6569,1231.3417,1547.5878,1231.4647,1547.4647C1231.5878,1547.3417,1231.6569,1547.1748,1231.6569,1547.0009L1231.6559,558.99994C1231.6559,558.6377,1231.3622,558.344,1230.9999,558.344L-152.00099,558.343 Z"/> </g> <g style="fill:rgb(228,240,255); fill-opacity:1.0; stroke-linejoin: miter"> <path d="M90.383255,1395.3123L74.91376,1381.7297Q-30.810944,1295.8793,-47.520958,1209.8198Q-56.525307,1180.7959,-41.841965,1108.0292Q-24.909386,1044.6184,14.620041,1006.90765Q20.12011,998.0798,57.093025,982.67255Q67.1856,976.4903,160.03851,968.3809Q172.51491,965.83844,182.13216,960.1331Q188.85402,960.04913,203.3734,932.6389Q218.96815,883.95215,234.21916,853.5565Q263.00842,807.5514,277.1134,798.37415Q303.08728,765.8145,421.50186,722.1475Q495.8414,697.6039,578.29285,684.94653Q678.3088,672.807,694.8914,675.2582Q805.1398,674.20825,848.0485,716.40906Q860.3803,722.23737,881.79877,773.3192L907.7412,880.922Q914.13025,900.80444,925.89075,916.51886Q928.7527,926.6541,974.7923,953.5429Q1082.1942,995.68896,1099.1991,1007.1252Q1136.9617,1027.5358,1148.0887,1067.3582Q1161.3813,1093.6188,1134.7449,1196.9958Q1104.6202,1290.9315,1056.5349,1397.9838L90.383255,1395.3123"/> </g> <g style="fill:rgb(61,65,109); fill-opacity:1.0; stroke-linejoin: miter"> <path d="M1061.8108,1396.9379L1057.3604,1399.0184Q1025.7188,1405.3068,872.1945,1409.0767Q717.60767,1412.8435,508.1218,1412.1312Q308.1947,1411.136,188.32744,1406.307Q149.92073,1404.7462,125.056656,1402.9056L104.15907,1401.013Q86.93747,1399.06,86.743835,1396.9368Q91.9718,1390.4207,229.53897,1386.0944Q367.10614,1381.7676,574.2773,1381.6038Q781.4481,1381.7682,919.0155,1386.0952Q1056.5828,1390.4218,1061.8108,1396.9379"/> </g> <g style="fill:rgb(59,159,128); fill-opacity:1.0; stroke-linejoin: miter"> <path d="M568.3947,1304.0901C568.5701,1304.3425,595.2668,1322.1592,627.7967,1343.7131L686.90717,1382.9376L766.1382,1264.0605L845.3194,1145.15L785.7637,1105.5608L726.2076,1065.9706L647.2149,1184.7974C603.7603,1250.1666,568.3011,1303.8186,568.3947,1304.0901 Z M725.45685,1124.7607C731.8249,1127.4834,737.8227,1127.3469,744.023,1124.325C746.2756,1123.2104,748.25507,1121.78,749.6053,1120.2727C750.6983,1118.9346,751.934,1117.905,752.2657,1117.9197C753.5538,1117.9478,787.28577,1140.3735,787.38416,1141.2607C787.3817,1141.6729,786.8613,1143.1804,786.1968,1144.5938C784.5486,1147.8967,784.06555,1154.5151,785.1295,1158.385C786.29504,1162.3188,788.7606,1166.3633,791.57336,1168.8508L793.87585,1170.8616L742.5071,1248.1453L691.16534,1325.379L687.6097,1323.9076C685.67206,1323.0988,683.03876,1322.3099,681.7685,1322.1559C675.8151,1321.4948,667.93365,1324.1578,664.2712,1328.1122C663.4333,1329.0648,662.30914,1330.2394,661.785,1330.7174L660.86615,1331.6859L643.2381,1319.9664C623.51263,1306.8545,625.22943,1308.6143,627.429,1303.9602C628.9787,1300.5969,629.3663,1295.9785,628.4738,1291.5371C627.51447,1286.7764,624.111,1281.1487,620.91986,1279.0253L619.5391,1278.1073L670.94183,1200.7769L722.3477,1123.4492L725.45685,1124.7607 Z"/> </g> <g style="fill:rgb(38,120,95); fill-opacity:1.0; stroke-linejoin: miter"> <path d="M674.00006,1210.2312C671.4528,1216.229,670.5423,1223.5969,671.58246,1229.9895C672.6219,1236.1785,674.5634,1240.696,678.34784,1245.9579C680.94073,1249.6073,681.68744,1250.2411,687.1668,1253.8839C692.503,1257.4318,693.5998,1257.9515,697.58325,1258.8834C706.2163,1260.9825,714.59534,1260.161,722.0157,1256.6453C736.0653,1249.9766,744.4376,1234.1768,741.975,1219.0767C739.0796,1201.4178,724.482,1188.7567,706.8998,1188.7493C692.82,1188.7346,679.4416,1197.4956,674.00006,1210.2312 Z"/> </g> <g style="fill:rgb(84,194,160); fill-opacity:1.0; stroke-linejoin: miter"> <path d="M676.8924,1204.8875C683.3909,1195.1086,694.8915,1188.7383,706.8998,1188.7493C724.482,1188.7567,739.0796,1201.4178,741.975,1219.0767C743.4032,1227.8398,741.18665,1236.8396,736.3241,1244.1509C732.809,1249.4387,727.91095,1253.846,722.0157,1256.6453C714.59534,1260.161,706.2163,1260.9825,697.58325,1258.8834C693.5998,1257.9515,692.503,1257.4318,687.1668,1253.8839C681.68744,1250.2411,680.94073,1249.6073,678.34784,1245.9579C674.5634,1240.696,672.6219,1236.1785,671.58246,1229.9895C670.5423,1223.5969,671.4528,1216.229,674.00006,1210.2312C674.8007,1208.3577,675.77435,1206.573,676.8924,1204.8875 Z M619.5391,1278.1073L620.91986,1279.0253C624.111,1281.1487,627.51447,1286.7764,628.4738,1291.5371C629.3663,1295.9785,628.9787,1300.5969,627.429,1303.9602C625.22943,1308.6143,623.51263,1306.8545,643.2381,1319.9664L660.86615,1331.6859L661.785,1330.7174C662.30914,1330.2394,663.4333,1329.0648,664.2712,1328.1122C667.93365,1324.1578,675.8151,1321.4948,681.7685,1322.1559C683.03876,1322.3099,685.67206,1323.0988,687.6097,1323.9076L691.16534,1325.379L793.87585,1170.8616L791.57336,1168.8508C788.7606,1166.3633,786.29504,1162.3188,785.1295,1158.385C784.06555,1154.5151,784.5486,1147.8967,786.1968,1144.5938C786.8613,1143.1804,787.3817,1141.6729,787.38416,1141.2607C787.28577,1140.3735,753.5538,1117.9478,752.2657,1117.9197C751.934,1117.905,750.6983,1118.9346,749.6053,1120.2727C748.25507,1121.78,746.2756,1123.2104,744.023,1124.325C737.8227,1127.3469,731.8249,1127.4834,725.45685,1124.7607L722.3477,1123.4492 Z"/> </g> <g style="fill:rgb(18,91,69); fill-opacity:1.0; stroke-linejoin: miter"> <path d="M686.63043,1210.5222L691.1806,1213.074Q690.6093,1217.7537,692.6718,1222.0352Q694.7342,1226.3171,699.08057,1228.7551Q701.86523,1230.3174,704.98694,1230.6394Q708.0416,1230.9241,710.9037,1230.1194Q713.7661,1229.3137,716.26196,1227.4106Q718.71985,1225.5752,720.28186,1222.7908L720.5107,1222.3835Q721.10333,1221.6448,722.0196,1221.4441Q722.9351,1221.2439,723.8178,1221.7388Q724.769,1222.2722,725.0671,1223.3325Q725.3653,1224.3926,724.8321,1225.3433Q724.29865,1226.294,723.23834,1226.592Q722.1784,1226.8906,721.22784,1226.3569L714.9044,1237.6301Q717.07776,1238.8491,719.42786,1239.2749Q721.67255,1239.7305,724.0181,1239.5281Q726.2575,1239.3557,728.424,1238.5176Q730.5225,1237.6414,732.3355,1236.1584L737.4977,1239.054L743.89685,1227.6445L738.1244,1224.4072Q738.187,1220.1567,736.1001,1216.3967Q734.0804,1212.6749,730.14154,1210.4655Q727.35675,1208.9037,724.2347,1208.5804Q721.18024,1208.2953,718.318,1209.1011Q715.45593,1209.9058,712.9601,1211.8096Q710.5023,1213.6445,708.94006,1216.4294L708.7119,1216.8367Q708.119,1217.5757,707.135,1217.7378Q706.21875,1217.9387,705.4042,1217.4812Q704.4535,1216.9478,704.0869,1215.8496Q703.78894,1214.79,704.322,1213.8394Q704.85535,1212.8884,705.9833,1212.6277Q707.0437,1212.3298,707.99414,1212.863L714.3174,1201.5894Q710.37866,1199.3799,706.08203,1199.5598Q701.7854,1199.7385,698.19116,1202.0078L693.0295,1199.1128 Z"/> </g> <g style="fill:rgb(84,194,160); fill-opacity:1.0; stroke-linejoin: miter"> <path d="M686.665,1211.7979L691.21454,1214.3501Q690.64374,1219.0293,692.706,1223.311Q694.7685,1227.5925,699.1151,1230.0308Q701.8994,1231.5925,705.02185,1231.915Q708.07605,1232.1997,710.938,1231.3943Q713.8004,1230.5891,716.296,1228.6858Q718.7543,1226.8506,720.31647,1224.0664L720.54486,1223.6587Q721.13776,1222.9202,722.0539,1222.72Q722.9694,1222.5193,723.8527,1223.0142Q724.8034,1223.5476,725.1015,1224.6077Q725.3995,1225.6677,724.8663,1226.6182Q724.33295,1227.5688,723.2729,1227.8674Q722.2128,1228.1658,721.2619,1227.6326L714.93896,1238.9055Q717.11206,1240.1248,719.4623,1240.5503Q721.707,1241.0061,724.05255,1240.804Q726.2917,1240.6316,728.45844,1239.7932Q730.5567,1238.917,732.3704,1237.4343L737.53186,1240.3296L743.9314,1228.9197L738.15894,1225.6819Q738.2213,1221.4321,736.13416,1217.6719Q734.1152,1213.9503,730.1757,1211.7406Q727.3914,1210.1791,724.2691,1209.8558Q721.21454,1209.5714,718.3528,1210.3767Q715.49023,1211.1814,712.9946,1213.0847Q710.5365,1214.9204,708.9745,1217.7046L708.7462,1218.1123Q708.15356,1218.8506,707.16956,1219.0134Q706.2534,1219.2134,705.43835,1218.7568Q704.4877,1218.2236,704.1216,1217.1252Q703.82324,1216.0657,704.3567,1215.115Q704.8895,1214.1638,706.01794,1213.9036Q707.07776,1213.605,708.0288,1214.138L714.35205,1202.865Q710.4131,1200.6555,706.11633,1200.835Q701.8197,1201.0137,698.2257,1203.2839L693.0639,1200.388 Z"/> </g> <g style="fill:rgb(59,159,128); fill-opacity:1.0; stroke-linejoin: miter"> <path d="M619.65045,1260.8253C619.67535,1261.1315,633.88727,1289.9093,651.28204,1324.8419L682.86115,1388.3663L810.916,1325.0308L938.9426,1261.6421L907.16125,1197.5796L875.3787,1133.5145L747.55615,1196.9254C677.2391,1231.8091,619.7044,1260.5436,619.65045,1260.8253 Z M845.3337,1184.0532C849.4876,1189.5942,854.7504,1192.4751,861.63104,1192.9583C864.13873,1193.1196,866.5684,1192.8708,868.49115,1192.2402C870.1069,1191.6282,871.69183,1191.354,871.972,1191.5327C873.07245,1192.2014,891.0729,1228.4891,890.71423,1229.3073C890.50635,1229.6622,889.3015,1230.7076,888.01953,1231.5997C884.9408,1233.6354,881.2128,1239.1251,880.1994,1243.0087C879.24176,1246.9987,879.3549,1251.734,880.54803,1255.2938L881.5357,1258.1871L798.40784,1299.4319L715.32764,1340.6473L712.9846,1337.5956C711.7106,1335.9259,709.8248,1333.9264,708.8021,1333.1573C703.9767,1329.6085,695.8196,1327.974,690.6701,1329.5677C689.46844,1329.9733,687.90753,1330.4286,687.2148,1330.5804L685.93463,1330.9606L676.5285,1311.9972C666.0014,1290.7782,666.6081,1293.1608,670.841,1290.2296C673.8637,1288.0912,676.50934,1284.2867,677.95636,1279.9943C679.5057,1275.3917,679.3724,1268.8165,677.6706,1265.3807L676.9334,1263.8959L760.11487,1222.6279L843.29694,1181.3625L845.3337,1184.0532 Z"/> </g> <g style="fill:rgb(38,120,95); fill-opacity:1.0; stroke-linejoin: miter"> <path d="M758.03674,1232.3445C752.8314,1236.2659,748.3584,1242.1917,746.06323,1248.2468C743.8696,1254.1265,743.2915,1259.009,743.93823,1265.4585C744.35913,1269.9146,744.6886,1270.8367,747.6128,1276.7317C750.4603,1282.4724,751.15,1283.4712,754.13354,1286.2703C760.56116,1292.4045,768.2272,1295.883,776.4116,1296.5479C791.9136,1297.7969,807.0637,1288.3004,812.4817,1273.9916C818.80334,1257.2516,812.49207,1238.9877,797.2694,1230.1902C785.0834,1223.1377,769.1166,1224.0356,758.03674,1232.3445 Z"/> </g> <g style="fill:rgb(84,194,160); fill-opacity:1.0; stroke-linejoin: miter"> <path d="M763.21277,1229.1631C773.72986,1223.9426,786.875,1224.1765,797.2694,1230.1902C812.49207,1238.9877,818.80334,1257.2516,812.4817,1273.9916C809.3367,1282.2953,802.9174,1288.9805,795.0504,1292.8809C789.3624,1295.7034,782.9171,1297.0715,776.4116,1296.5479C768.2272,1295.883,760.56116,1292.4045,754.13354,1286.2703C751.15,1283.4712,750.4603,1282.4724,747.6128,1276.7317C744.6886,1270.8367,744.35913,1269.9146,743.93823,1265.4585C743.2915,1259.009,743.8696,1254.1265,746.06323,1248.2468C748.3584,1242.1917,752.8314,1236.2659,758.03674,1232.3445C759.66626,1231.123,761.4022,1230.063,763.21277,1229.1631 Z M676.9334,1263.8959L677.6706,1265.3807C679.3724,1268.8165,679.5057,1275.3917,677.95636,1279.9943C676.50934,1284.2867,673.8637,1288.0912,670.841,1290.2296C666.6081,1293.1608,666.0014,1290.7782,676.5285,1311.9972L685.93463,1330.9606L687.2148,1330.5804C687.90753,1330.4286,689.46844,1329.9733,690.6701,1329.5677C695.8196,1327.974,703.9767,1329.6085,708.8021,1333.1573C709.8248,1333.9264,711.7106,1335.9259,712.9846,1337.5956L715.32764,1340.6473L881.5357,1258.1871L880.54803,1255.2938C879.3549,1251.734,879.24176,1246.9987,880.1994,1243.0087C881.2128,1239.1251,884.9408,1233.6354,888.01953,1231.5997C889.3015,1230.7076,890.50635,1229.6622,890.71423,1229.3073C891.0729,1228.4891,873.07245,1192.2014,871.972,1191.5327C871.69183,1191.354,870.1069,1191.6282,868.49115,1192.2402C866.5684,1192.8708,864.13873,1193.1196,861.63104,1192.9583C854.7504,1192.4751,849.4876,1189.5942,845.3337,1184.0532L843.29694,1181.3625 Z"/> </g> <g style="fill:rgb(18,91,69); fill-opacity:1.0; stroke-linejoin: miter"> <path d="M773.7063,1230.7258L773.7709,1235.9426Q769.433,1237.7881,766.75586,1241.7146Q764.0791,1245.6411,764.1411,1250.6245Q764.1809,1253.8169,765.46216,1256.6821Q766.74304,1259.4697,768.87134,1261.5459Q770.9994,1263.6221,773.8961,1264.8323Q776.7146,1266.0435,779.90686,1266.0034L780.3744,1265.9983Q781.3108,1266.1418,781.9424,1266.8347Q782.57385,1267.5281,782.5867,1268.5398Q782.5996,1269.6301,781.83044,1270.4177Q781.06177,1271.2065,779.9717,1271.2205Q778.8817,1271.2334,778.09326,1270.4648Q777.30493,1269.6956,777.2916,1268.6055L764.36646,1268.7671Q764.39746,1271.2576,765.2042,1273.5063Q765.9321,1275.678,767.27966,1277.6072Q768.5491,1279.4607,770.3583,1280.9182Q772.166,1282.2971,774.3567,1283.1265L774.43054,1289.0442L787.51135,1288.8811L787.42896,1282.2625Q791.141,1280.1917,793.35364,1276.5042Q795.56714,1272.8945,795.5112,1268.3787Q795.4717,1265.1863,794.1898,1262.321Q792.90955,1259.5334,790.7809,1257.457Q788.6527,1255.3816,785.75586,1254.1716Q782.9374,1252.9609,779.7451,1253.0005L779.27795,1253.0068Q778.34204,1252.8623,777.70935,1252.0918Q777.0775,1251.3984,777.06616,1250.4634Q777.0526,1249.3743,777.8207,1248.5076Q778.5897,1247.7192,779.67993,1247.706Q780.7693,1247.6926,781.55896,1248.5396Q782.3469,1249.3079,782.3607,1250.3987L795.28577,1250.238Q795.22925,1245.721,792.926,1242.0901Q790.62244,1238.4585,786.86,1236.4805L786.7864,1230.563 Z"/> </g> <g style="fill:rgb(84,194,160); fill-opacity:1.0; stroke-linejoin: miter"> <path d="M772.6185,1231.3938L772.6832,1236.6101Q768.3452,1238.4556,765.6688,1242.3823Q762.99207,1246.3088,763.05383,1251.2922Q763.0935,1254.4846,764.3751,1257.3503Q765.65576,1260.1372,767.7837,1262.2134Q769.9121,1264.2898,772.80884,1265.4998Q775.6273,1266.7109,778.81946,1266.6704L779.287,1266.6653Q780.2229,1266.8096,780.85474,1267.502Q781.4862,1268.1948,781.49927,1269.2073Q781.5123,1270.2969,780.7433,1271.0859Q779.97424,1271.8735,778.8843,1271.8877Q777.7943,1271.9006,777.0061,1271.1323Q776.21765,1270.3628,776.2041,1269.2734L763.2794,1269.4341Q763.30994,1271.9258,764.1167,1274.1736Q764.8445,1276.3447,766.1925,1278.2756Q767.4612,1280.1284,769.2709,1281.5854Q771.07874,1282.9648,773.26965,1283.7942L773.343,1289.7112L786.4238,1289.5493L786.3417,1282.9302Q790.053,1280.8599,792.26636,1277.1714Q794.4795,1273.5623,794.42346,1269.0461Q794.38416,1265.854,793.1024,1262.9885Q791.8218,1260.2012,789.693,1258.1243Q787.56506,1256.0486,784.6686,1254.8394Q781.85034,1253.6282,778.6576,1253.6685L778.19055,1253.6741Q777.25464,1253.5298,776.62195,1252.7588Q775.99036,1252.0657,775.97876,1251.1316Q775.9656,1250.042,776.7334,1249.1753Q777.50244,1248.3872,778.5923,1248.3733Q779.6824,1248.3599,780.4712,1249.2065Q781.25964,1249.9758,781.2733,1251.0662L794.1985,1250.905Q794.1422,1246.3887,791.83875,1242.7571Q789.5354,1239.1262,785.7728,1237.148L785.69934,1231.2307 Z"/> </g> <g style="fill:rgb(38,120,95); fill-opacity:1.0; stroke-linejoin: miter"> <path d="M648.47687,1251.7443C645.727,1251.816,644.2537,1251.8683,644.22955,1251.9034C644.1181,1252.191,644.50824,1284.2863,645.11273,1323.3029L646.16315,1394.2358L789.0149,1392.4071L931.8606,1390.5193L930.8596,1319.0123L929.8574,1247.5037L787.1841,1249.5015C720.4858,1250.4348,664.0329,1251.3488,648.47687,1251.7443 Z M694.56464,1279.4078L787.4115,1278.1047L880.2591,1276.8055L694.56464,1279.4078 Z M789.14465,1356.5468C789.09766,1356.5475,789.052,1356.5492,789.0038,1356.5487C788.95825,1356.5499,788.912,1356.5524,788.8646,1356.5538 Z M696.0515,1365.2142L881.57404,1362.6135L788.78735,1363.9156L696.0515,1365.2142 Z"/> </g> <g style="fill:rgb(59,159,128); fill-opacity:1.0; stroke-linejoin: miter"> <path d="M642.2464,1247.8446C642.1368,1248.1322,642.52814,1280.2255,643.1329,1319.2445L644.1838,1390.1775L787.0343,1388.3497L929.881,1386.4617L928.87866,1314.9552L927.87805,1243.4485L785.20593,1245.4446C706.7186,1246.5426,642.4172,1247.6144,642.2464,1247.8446 Z M878.95514,1276.0568C880.3083,1282.8488,883.81116,1287.7201,889.80835,1291.1271C892.0012,1292.3558,894.3001,1293.1803,896.30664,1293.4425C898.0282,1293.5878,899.5762,1294.0253,899.75134,1294.3068C900.45557,1295.3854,901.02075,1335.8876,900.3446,1336.4708C900.00305,1336.7018,898.46533,1337.1237,896.92334,1337.3746C893.2676,1337.8816,887.5338,1341.2234,884.9435,1344.2888C882.35693,1347.4739,880.41425,1351.794,879.9526,1355.5193L879.5942,1358.5554L786.8064,1359.8602L694.07355,1361.1578L693.2784,1357.3932C692.85077,1355.3375,692.01276,1352.7191,691.42206,1351.5839C688.6025,1346.2992,681.951,1341.3033,676.6181,1340.5167C675.3598,1340.3632,673.7552,1340.1007,673.0643,1339.9376L671.7459,1339.7272L671.4506,1318.5612C671.1182,1294.8776,670.6368,1297.2877,675.72003,1296.4723C679.3702,1295.8497,683.39935,1293.5602,686.55914,1290.3134C689.94354,1286.8307,692.663,1280.8427,692.6109,1277.0096L692.5877,1275.3514L785.4341,1274.0491L878.27985,1272.7509L878.95514,1276.0568 Z"/> </g> <g style="fill:rgb(38,120,95); fill-opacity:1.0; stroke-linejoin: miter"> <path d="M779.3638,1281.9158C772.97546,1283.2046,766.3823,1286.6179,761.6974,1291.0896C757.1797,1295.4453,754.5497,1299.6003,752.34753,1305.6958C750.80334,1309.8967,750.70264,1310.8716,750.79456,1317.4507C750.8838,1323.8577,751.07446,1325.0559,752.55676,1328.8694C755.7051,1337.1782,761.1177,1343.626,768.2125,1347.7596C781.6549,1355.5807,799.4208,1353.5577,810.48584,1342.9905C823.41724,1330.6221,825.6114,1311.4243,815.6804,1296.9156C807.7339,1285.2916,792.94495,1279.206,779.3638,1281.9158 Z"/> </g> <g style="fill:rgb(84,194,160); fill-opacity:1.0; stroke-linejoin: miter"> <path d="M785.40625,1281.281C797.1467,1281.1147,808.9016,1287.0026,815.6804,1296.9156C825.6114,1311.4243,823.41724,1330.6221,810.48584,1342.9905C804.06415,1349.1224,795.3866,1352.381,786.6073,1352.5018C780.25806,1352.591,773.85364,1351.0411,768.2125,1347.7596C761.1177,1343.626,755.7051,1337.1782,752.55676,1328.8694C751.07446,1325.0559,750.8838,1323.8577,750.79456,1317.4507C750.70264,1310.8716,750.80334,1309.8967,752.34753,1305.6958C754.5497,1299.6003,757.1797,1295.4453,761.6974,1291.0896C766.3823,1286.6179,772.97546,1283.2046,779.3638,1281.9158C781.36096,1281.5178,783.3843,1281.3115,785.40625,1281.281 Z M692.5877,1275.3514L692.6109,1277.0096C692.663,1280.8427,689.94354,1286.8307,686.55914,1290.3134C683.39935,1293.5602,679.3702,1295.8497,675.72003,1296.4723C670.6368,1297.2877,671.1182,1294.8776,671.4506,1318.5612L671.7459,1339.7272L673.0643,1339.9376C673.7552,1340.1007,675.3598,1340.3632,676.6181,1340.5167C681.951,1341.3033,688.6025,1346.2992,691.42206,1351.5839C692.01276,1352.7191,692.85077,1355.3375,693.2784,1357.3932L694.07355,1361.1578L879.5942,1358.5554L879.9526,1355.5193C880.41425,1351.794,882.35693,1347.4739,884.9435,1344.2888C887.5338,1341.2234,893.2676,1337.8816,896.92334,1337.3746C898.46533,1337.1237,900.00305,1336.7018,900.3446,1336.4708C901.02075,1335.8876,900.45557,1295.3854,899.75134,1294.3068C899.5762,1294.0253,898.0282,1293.5878,896.30664,1293.4425C894.3001,1293.1803,892.0012,1292.3558,889.80835,1291.1271C883.81116,1287.7201,880.3083,1282.8488,878.95514,1276.0568L878.27985,1272.7509 Z"/> </g> <g style="fill:rgb(18,91,69); fill-opacity:1.0; stroke-linejoin: miter"> <path d="M781.39856,1288.1235L781.46387,1293.3401Q777.1256,1295.185,774.4486,1299.1123Q771.7722,1303.0396,771.8341,1308.0227Q771.874,1311.2151,773.155,1314.0803Q774.4359,1316.8674,776.5646,1318.9436Q778.6929,1321.0198,781.58923,1322.2297Q784.4076,1323.4412,787.5996,1323.4014L788.0669,1323.396Q789.00305,1323.5398,789.63525,1324.2332Q790.2665,1324.9258,790.27905,1325.9377Q790.29285,1327.0278,789.5237,1327.8157Q788.75476,1328.6042,787.66455,1328.6182Q786.5748,1328.6316,785.78613,1327.8625Q784.9978,1327.0933,784.9844,1326.0032L772.05945,1326.1648Q772.09033,1328.6558,772.89685,1330.904Q773.62476,1333.0757,774.97253,1335.0054Q776.24194,1336.8586,778.0508,1338.3152Q779.85925,1339.6948,782.0498,1340.5242L782.12366,1346.4423L795.20435,1346.2799L795.1218,1339.6606Q798.8341,1337.5901,801.0468,1333.9031Q803.2603,1330.293,803.2043,1325.7769Q803.16437,1322.585,801.8831,1319.7195Q800.6021,1316.9324,798.4741,1314.8557Q796.34534,1312.779,793.44946,1311.5696Q790.6306,1310.3586,787.43823,1310.3989L786.97095,1310.4045Q786.03503,1310.2603,785.40234,1309.4893Q784.77075,1308.7959,784.7593,1307.8616Q784.74585,1306.7717,785.5134,1305.9055Q786.2826,1305.1162,787.3722,1305.103Q788.4625,1305.0891,789.2522,1305.9368Q790.0403,1306.7056,790.05383,1307.7964L802.9787,1307.636Q802.92267,1303.1189,800.6191,1299.4873Q798.3157,1295.8562,794.5531,1293.8787L794.4795,1287.9612 Z"/> </g> <g style="fill:rgb(84,194,160); fill-opacity:1.0; stroke-linejoin: miter"> <path d="M780.31165,1288.7915L780.37634,1294.0078Q776.0382,1295.853,773.36145,1299.78Q770.68494,1303.707,770.7467,1308.69Q770.7865,1311.8823,772.06775,1314.748Q773.34863,1317.5352,775.47705,1319.6111Q777.6057,1321.687,780.5017,1322.8975Q783.3203,1324.1082,786.5123,1324.0688L786.97986,1324.0637Q787.9158,1324.2073,788.5476,1324.9001Q789.1791,1325.5928,789.1915,1326.6052Q789.2052,1327.6953,788.43616,1328.4839Q787.66724,1329.2717,786.5773,1329.2854Q785.4872,1329.2991,784.6991,1328.5298Q783.9105,1327.7612,783.89734,1326.6709L770.97217,1326.8318Q771.00305,1329.3235,771.8097,1331.5713Q772.5375,1333.7429,773.8855,1335.6731Q775.1543,1337.5261,776.96375,1338.9832Q778.772,1340.3625,780.9624,1341.1919L781.03613,1347.1095L794.11694,1346.9471L794.03467,1340.3286Q797.74695,1338.2578,799.95984,1334.5703Q802.1733,1330.9609,802.11664,1326.4443Q802.07733,1323.2524,800.79584,1320.3867Q799.5149,1317.5989,797.3866,1315.5232Q795.2583,1313.4468,792.36194,1312.237Q789.5431,1311.0259,786.3508,1311.0654L785.88367,1311.0723Q784.94714,1310.927,784.31506,1310.157Q783.6836,1309.4636,783.6719,1308.5293Q783.6581,1307.4387,784.426,1306.573Q785.1948,1305.7847,786.28516,1305.771Q787.3756,1305.7576,788.1644,1306.6045Q788.95276,1307.3728,788.96643,1308.4634L801.89105,1308.3032Q801.8354,1303.7871,799.532,1300.1553Q797.2283,1296.5239,793.46606,1294.5457L793.39197,1288.6282 Z"/> </g> <g style="fill:rgb(255,182,148); fill-opacity:1.0; stroke-linejoin: miter"> <path d="M689.7779,1193.3867L689.7779,1193.3867L689.7779,1193.3867L689.7779,1193.3867"/> </g> <g style="fill:rgb(255,255,255); fill-opacity:1.0; stroke-linejoin: miter"> <path d="M706.8718,1261.1346L706.8718,1261.1346L706.8718,1261.1346L706.8718,1261.1346"/> </g> <g style="fill:rgb(99,150,214); fill-opacity:1.0; stroke-linejoin: miter"> <path d="M355.23978,901.76843L532.4938,901.64136L709.7482,901.51373Q709.92535,1146.7592,710.1024,1392.0056Q532.8475,1392.1327,355.59247,1392.26Q355.41617,1147.0132,355.23978,901.76843"/> </g> <g style="fill:rgb(255,255,255); fill-opacity:1.0; stroke-linejoin: miter"> <path d="M394.38425,1347.0482C381.10095,1347.057,370.3167,1336.2891,370.30713,1322.9995L370.0302,937.9601C370.02072,924.6715,380.789,913.89307,394.07233,913.88306L670.82556,913.6828C684.1147,913.67474,694.89264,924.4371,694.9019,937.7262L695.1172,1235.3894L579.20245,1346.9155L394.38425,1347.0465 Z"/> </g> <g style="fill:rgb(206,209,227); fill-opacity:1.0; stroke-linejoin: miter"> <path d="M409.1976,1053.1464L409.16055,1059.5948L653.3729,1060.979L653.4094,1054.5317L409.1976,1053.1464 Z"/> </g> <g style="fill:rgb(206,209,227); fill-opacity:1.0; stroke-linejoin: miter"> <path d="M409.04584,1079.84L409.00885,1086.2894L653.2212,1087.6748L653.25757,1081.2266L409.04584,1079.84 Z"/> </g> <g style="fill:rgb(206,209,227); fill-opacity:1.0; stroke-linejoin: miter"> <path d="M408.89392,1106.5355L408.8575,1112.9843L604.76184,1114.0955L604.7988,1107.6482L408.89392,1106.5355 Z"/> </g> <g style="fill:rgb(206,209,227); fill-opacity:1.0; stroke-linejoin: miter"> <path d="M408.74258,1133.2307L408.7059,1139.6794L652.91833,1141.0643L652.9547,1134.6166L408.74258,1133.2307 Z"/> </g> <g style="fill:rgb(206,209,227); fill-opacity:1.0; stroke-linejoin: miter"> <path d="M408.59082,1159.9248L408.55414,1166.374L652.76697,1167.7599L652.8036,1161.3119L408.59082,1159.9248 Z"/> </g> <g style="fill:rgb(255,0,0); fill-opacity:1.0; stroke-linejoin: miter"> <path d="M518.0126,832.2398L518.0126,832.2409L518.0126,832.2414L518.0126,832.2398L518.0126,832.2409L518.0126,832.2398L518.0126,832.2414Q518.0126,832.2398,518.0126,832.2398 Z"/> </g> <g style="fill:rgb(206,209,227); fill-opacity:1.0; stroke-linejoin: miter"> <path d="M456.70795,1199.8702L456.67145,1206.3182L652.57623,1207.4309L652.61273,1200.9827L456.70795,1199.8702 Z"/> </g> <g style="fill:rgb(206,209,227); fill-opacity:1.0; stroke-linejoin: miter"> <path d="M456.77893,1298.451L456.7423,1304.8998L579.17694,1305.5947L621.8969,1305.8372L628.5643,1299.4268L628.55975,1299.4263L579.1724,1299.1467L456.77893,1298.451 Z"/> </g> <g style="fill:rgb(225,225,225); fill-opacity:1.0; stroke-linejoin: miter"> <path d="M695.1223,1235.3894L603.18634,1235.453C589.8969,1235.464,579.1342,1246.2423,579.14386,1259.5309L579.207,1346.915L695.1223,1235.3894 Z"/> </g> <g style="fill:rgb(43,70,139); fill-opacity:1.0; stroke-linejoin: miter"> <path d="M427.78415,877.15515L532.4758,877.0804L637.16833,877.0052Q637.1842,899.398,637.2003,921.7918Q532.5082,921.8673,427.81622,921.94214Q427.80038,899.54895,427.78415,877.15515"/> </g> <g style="fill:rgb(206,209,227); fill-opacity:1.0; stroke-linejoin: miter"> <path d="M503.9725,950.05176L580.54846,950.0521L657.1245,950.0521Q657.1245,986.155,657.1245,1022.258Q580.54846,1022.2581,503.9725,1022.25836Q503.9725,986.1551,503.9725,950.05176"/> </g> <g style="fill:rgb(43,70,139); fill-opacity:1.0; stroke-linejoin: miter"> <path d="M458.67358,963.79517Q456.9309,963.79517,455.2989,963.9658Q454.61768,964.0022,454.2951,964.46814Q453.97253,964.9337,454.11597,965.57947Q454.2951,966.26025,454.8687,967.72986Q460.8194,982.7857,462.14563,986.1557Q463.5437,989.5611,462.21735,992.7872Q461.2495,995.1175,454.94037,1011.17645Q454.43835,1012.46735,454.2594,1013.07697Q453.79333,1014.7978,455.44232,1014.8692Q456.66113,1014.90485,461.17792,1014.90497Q462.8985,1014.90497,463.57965,1013.2205Q463.83057,1012.6109,464.61902,1010.5318Q467.03705,1003.8996,467.09174,1003.79095L467.09296,1003.7939Q467.49695,1002.7486,468.18536,1002.7486Q468.2298,1002.7486,468.27557,1002.7526Q468.9566,1002.78827,469.4226,1003.9001Q469.45844,1003.9715,469.9245,1005.226Q472.2187,1011.6429,472.43378,1012.252Q473.37286,1014.9721,475.7155,1014.9721Q475.96655,1014.9721,476.2337,1014.9412L477.95435,1014.94403L477.95435,1014.90497L480.8222,1014.9079Q482.72205,1014.76154,482.1126,1012.96954Q481.3955,1010.9616,480.32013,1008.1296Q475.44495,995.691,474.011,992.1424Q472.97137,989.52496,473.93933,987.12335Q474.04688,986.8726,474.22607,986.44244Q474.40533,985.9401,474.477,985.79706Q475.15826,984.00433,478.06195,976.6914Q480.2486,971.1356,481.61072,967.6222Q482.18427,966.15283,482.29187,965.7582Q482.5069,964.97,482.18427,964.46814Q481.86157,964.0022,481.07306,963.9302Q480.1051,963.89453,478.34863,963.89453Q476.41296,963.8585,475.6242,963.8225Q475.55762,963.82043,475.49237,963.82043Q473.27167,963.82043,472.50555,966.18884Q472.18292,967.1566,469.92462,973.4656Q469.49445,974.61255,469.1718,975.32947Q468.92078,975.93896,468.3114,976.01086Q468.2541,976.0166,468.19897,976.0166Q467.5658,976.0166,467.23608,975.25793Q467.05682,974.8634,466.41156,973.10693Q464.36823,967.44336,463.79462,965.8303Q463.18524,964.0376,461.85895,963.9302Q460.2226,963.79517,458.67358,963.79517 Z"/> </g> <g style="fill:rgb(43,70,139); fill-opacity:1.0; stroke-linejoin: miter"> <path d="M389.5193,963.3928Q388.30048,963.3928,387.7986,963.46423Q386.79486,963.5359,386.40063,963.9302Q386.00635,964.2888,385.93457,965.2208Q385.8271,967.76587,385.93457,970.13184Q386.00635,971.171,386.43652,971.5659Q386.86664,971.9957,387.97787,972.0676Q388.47964,972.1035,389.69852,972.1035Q390.8098,972.1035,391.45508,972.17505Q392.78143,972.3185,393.3191,972.85614Q393.85678,973.394,393.96442,974.72003Q394.00015,975.2221,394.00015,977.0501L394.00006,993.8267Q394.00006,1006.6602,394.00006,1010.9257Q394.00015,1012.6109,394.07184,1013.2205Q394.2152,1014.90497,395.6491,1014.9412Q396.77066,1014.98676,397.93808,1014.98676Q399.49506,1014.98676,401.1338,1014.90497Q402.46014,1014.8693,402.60352,1013.39935Q402.71103,1012.46735,402.71103,1010.49554L402.71103,994.1497Q402.7111,981.42377,402.7111,977.8033Q402.7111,975.6523,402.7469,975.18634Q402.85446,973.53766,403.49963,972.8918Q404.10898,972.2466,405.75797,972.13916Q406.25998,972.1035,407.37122,972.1035Q408.37494,972.0676,408.9485,972.0314Q409.8805,971.9603,410.27478,971.5659Q410.66916,971.171,410.74084,970.20337Q410.81253,969.2356,410.77664,967.01306Q410.77664,964.432,410.27478,963.9302Q409.73703,963.42847,407.1919,963.3928 Z"/> </g> <g style="fill:rgb(43,70,139); fill-opacity:1.0; stroke-linejoin: miter"> <path d="M429.59628,963.6078Q427.80402,963.6078,427.19467,964.1095Q426.47766,964.647,426.19092,966.4756Q426.0475,967.4791,421.7816,992.28546Q421.02872,996.87384,418.627,1010.99786Q418.37622,1012.57477,418.34042,1012.96954Q418.26874,1014.69,419.81015,1014.72565Q420.99313,1014.77985,422.42697,1014.77985Q423.8609,1014.77985,425.54562,1014.72565Q427.0512,1014.69,427.33804,1013.1485Q428.30582,1008.05804,428.37756,1007.2338Q428.70013,1004.4018,429.66797,1003.75604Q430.33377,1003.3239,432.85385,1003.3239Q433.04788,1003.3239,433.25278,1003.32623Q433.2169,1003.32623,433.82632,1003.3621Q435.72638,1003.46954,436.08472,1005.19025Q436.55072,1007.1619,436.62238,1007.69977Q436.73004,1008.5601,436.9809,1010.28094Q437.19598,1012.0013,437.33954,1012.826Q437.48285,1013.8654,437.9131,1014.2597Q438.34314,1014.69,439.38275,1014.76154Q439.84882,1014.7978,442.53723,1014.83344Q442.72363,1014.836,442.90015,1014.836Q445.37164,1014.836,445.90704,1014.3674Q446.6955,1013.61444,446.15784,1010.424Q444.93896,1003.1828,442.50128,988.7365Q440.06384,974.2902,438.84515,967.04895Q438.70166,966.15283,438.55823,965.651Q438.23572,964.432,437.80548,964.07324Q437.3753,963.7152,436.19244,963.64355L432.75107,963.6465L432.75107,963.6078 Z M432.47147,986.0688Q432.91464,986.0688,433.25278,986.6214Q433.57535,987.195,433.64706,987.69684Q433.6829,987.8404,434.07724,990.13446Q434.4357,992.10614,434.57907,993.07355Q434.7225,994.11383,434.65085,994.2928Q434.50735,995.0815,432.57175,995.0815Q432.48563,995.0827,432.40298,995.0827Q430.42078,995.0827,430.42078,994.2569Q430.42078,993.89825,430.49255,993.2891Q430.88684,988.7006,431.7114,986.6214Q431.85464,986.19147,432.3207,986.0838Q432.3976,986.0688,432.47147,986.0688 Z"/> </g> <g style="fill:rgb(0,0,0); fill-opacity:1.0; stroke-linejoin: miter"> <path d="M310.83157,1091.562Q304.0882,1089.3782,296.98508,1091.4695Q290.47766,1093.4824,287.19632,1098.8568Q283.50098,1104.7399,283.65,1119.1444L290.25677,1125.634L321.82907,1114.5535Q324.59402,1107.052,321.63345,1101.459Q317.85986,1094.0115,310.84186,1091.5652"/> </g> <g style="fill:rgb(0,0,0); fill-opacity:1.0; stroke-linejoin: miter"> <path d="M392.75412,1372.776L388.59982,1386.122Q384.5981,1389.8661,384.0646,1392.63Q383.2288,1396.9293,387.081,1402.1837Q390.03104,1405.9799,393.6294,1407.0846Q394.7814,1407.4513,396.52356,1407.6349Q406.70795,1407.8263,408.21472,1408.4524Q409.2791,1408.4104,420.31076,1412.6921Q422.28537,1413.3494,424.1426,1413.7275Q432.12048,1415.4102,439.97388,1409.1528Q447.4864,1402.4427,443.7179,1396.7443Q442.53455,1395.2391,440.78278,1394.5072Q439.7669,1394.0887,438.88007,1393.8654Q433.6407,1392.7572,432.59473,1392.4039Q430.21194,1391.6019,428.87915,1390.4574Q425.32727,1387.4694,423.11987,1379.2003L392.8676,1372.8002"/> </g> <g style="fill:rgb(0,0,0); fill-opacity:1.0; stroke-linejoin: miter"> <path d="M422.93463,1375.5531Q422.49048,1376.1771,422.93427,1375.5573 M422.69464,1375.9027L415.99472,1385.5831Q413.2446,1383.9017,412.6408,1385.0065Q411.92746,1385.7904,412.75143,1390.2592L415.9714,1385.6171L416.02954,1385.6444Q417.6001,1386.6703,420.46283,1389.1378Q433.31268,1400.6857,433.88483,1401.0192Q437.03583,1403.6449,438.98022,1404.6317Q442.0575,1406.3073,444.12958,1404.3761Q449.97845,1398.2633,451.40997,1396.3678Q453.54138,1393.6908,454.0116,1391.922Q454.95593,1388.9672,450.40582,1386.7037Q448.44415,1385.6818,444.20166,1384.1881Q442.59662,1383.5741,429.5532,1379.3353Q427.1693,1378.5343,425.89285,1378.0385Q422.33893,1376.6759,422.68478,1375.9391"/> </g> <g style="fill:rgb(0,0,0); fill-opacity:1.0; stroke-linejoin: miter"> <path d="M330.01294,1309.1335L322.35336,1311.6267L321.99356,1318.6841L322.0002,1318.6946L330.36426,1318.9373L330.01315,1309.1384"/> </g> <g style="fill:rgb(0,0,0); fill-opacity:1.0; stroke-linejoin: miter"> <path d="M390.3805,1364.6776L251.25204,1374.6022L252.41983,1397.8126L337.9686,1403.637L388.72507,1388.5121L390.37955,1364.6927"/> </g> <g style="fill:rgb(0,0,0); fill-opacity:1.0; stroke-linejoin: miter"> <path d="M320.50922,1358.5547L276.27637,1362.5275L250.83829,1374.7455L338.99265,1380.9812L400.76724,1367.465L362.0176,1360.4988L320.57687,1358.5581"/> </g> <g style="fill:rgb(0,0,0); fill-opacity:1.0; stroke-linejoin: miter"> <path d="M259.03268,1243.4829Q253.54889,1278.8174,261.67596,1290.244Q264.8521,1294.8239,271.55347,1297.4584Q274.92444,1299.1354,291.32742,1301.875Q293.72604,1302.4517,295.61823,1303.3586Q297.81042,1304.0134,304.82413,1310.4124Q306.4802,1311.5735,307.87018,1312.0979Q312.49274,1314.1489,324.94376,1312.9072Q368.1023,1306.8877,408.6363,1302.4327L259.12762,1243.5203"/> </g> <g style="fill:rgb(255,190,128); fill-opacity:1.0; stroke-linejoin: miter"> <path d="M353.16043,1205.8337L335.3259,1211.4663Q342.76294,1237.5884,347.6197,1244.0027Q351.92987,1250.404,357.40424,1248.104Q363.4622,1245.0332,365.0144,1236.346Q366.79135,1225.1521,353.19113,1205.8779"/> </g> <g style="fill:rgb(249,86,123); fill-opacity:1.0; stroke-linejoin: miter"> <path d="M277.80432,1148.6107L276.51056,1153.9044L251.96616,1167.473Q242.68784,1187.6086,243.27234,1198.1785Q243.20139,1202.9426,244.43881,1211.8035L275.39084,1210.1453Q269.54227,1245.272,270.2838,1256.4053Q270.56317,1271.332,277.29996,1283.7118L348.23944,1243.0168L341.39142,1211.1716L356.04297,1207.6035Q350.65912,1186.6644,342.1751,1171.4967L316.00885,1158.5297L315.3343,1152.1127L277.99396,1148.6283"/> </g> <g style="fill:rgb(33,63,123); fill-opacity:1.0; stroke-linejoin: miter"> <path d="M400.45367,1300.941L404.72073,1342.932L386.17877,1300.9471L400.16483,1300.9469 M333.75912,1243.0139Q308.85114,1242.8198,293.2339,1255.1836Q273.97424,1270.0901,277.6546,1285.8959Q302.60217,1290.5828,310.5835,1293.6006Q317.16858,1294.6882,341.57602,1305.977Q344.802,1307.1238,350.9203,1307.6204Q354.2023,1320.2026,357.18182,1325.3416Q379.8362,1355.4711,381.53384,1360.663Q384.05014,1364.9498,388.96783,1381.9662L430.0259,1379.5148Q437.80774,1294.9889,438.54333,1289.0931Q439.36395,1282.389,436.98663,1276.1256Q425.5242,1249.1495,334.08994,1243.0176 Z"/> </g> <g style="fill:rgb(255,190,128); fill-opacity:1.0; stroke-linejoin: miter"> <path d="M276.90106,1206.0674L245.7016,1210.5503Q247.52023,1223.6831,250.44882,1231.7246Q252.96365,1238.969,260.1706,1250.1575L281.05026,1254.9998Q285.64276,1256.0366,286.12726,1255.8904Q290.24716,1255.3638,293.16763,1255.2283L317.48404,1254.373Q324.64716,1254.0312,328.60443,1253.5542Q337.45715,1252.4797,337.44144,1249.8516Q342.85962,1255.2681,347.64023,1254.896Q351.47046,1254.5164,354.95526,1250.5076Q358.0573,1246.6392,357.39752,1243.1167Q355.38034,1237.0364,342.93655,1235.762Q339.10416,1235.4565,334.72873,1236.2573Q332.8579,1236.4739,322.78683,1239.3755Q320.64102,1239.8948,319.14362,1240.0664Q315.15912,1240.5854,310.51266,1239.7202Q303.74286,1238.7771,278.3409,1228.2158Q280.90533,1221.3645,276.91873,1206.1462"/> </g> <g style="fill:rgb(0,0,0); fill-opacity:1.0; stroke-linejoin: miter"> <path d="M446.724,1201.3478L380.8121,1202.7208L350.45972,1253.5364L307.4954,1252.4797L307.4816,1257.0576L348.39984,1264.647L413.60938,1261.2885L416.19336,1253.5363L446.6941,1201.4037"/> </g> <g style="fill:rgb(255,190,128); fill-opacity:1.0; stroke-linejoin: miter"> <path d="M327.49548,1252.1638Q326.81815,1251.3647,319.50845,1250.3965Q310.78488,1249.312,308.0878,1249.644Q306.96152,1249.7671,306.33478,1250.2515L305.35727,1254.8042Q308.0989,1254.727,314.2208,1254.2593Q319.27725,1253.8796,322.30322,1253.5198Q327.90344,1252.8562,327.50198,1252.1736"/> </g> <g style="fill:rgb(0,0,0); fill-opacity:1.0; stroke-linejoin: miter"> <path d="M331.5891,1317.2278L320.98776,1317.3516L320.91037,1367.5449L333.35825,1367.31L331.5903,1317.2671"/> </g> <g style="fill:rgb(0,0,0); fill-opacity:1.0; stroke-linejoin: miter"> <path d="M389.25275,1381.276Q386.933,1384.7916,386.05344,1386.7899Q385.11523,1388.8026,384.04727,1392.735L391.06708,1390.601L392.13293,1382.3207L389.2658,1381.2809"/> </g> <g style="fill:rgb(238,0,255); fill-opacity:1.0; stroke-linejoin: miter"> <path d="M273.1523,1274.1167L277.7211,1286.2118Q277.31604,1282.6534,277.1235,1281.3846L273.15488,1274.1211"/> </g> <g style="fill:rgb(255,190,128); fill-opacity:1.0; stroke-linejoin: miter"> <path d="M299.67184,1103.4761Q294.84988,1103.563,293.65616,1106.0518Q293.27856,1106.8594,293.23816,1108.1113Q293.1642,1108.5693,293.48706,1112.3584Q293.49094,1113.2756,293.3526,1113.6125Q293.18314,1114.1558,292.7073,1114.55L290.7218,1115.8408Q290.2947,1116.2896,290.1634,1117.0701Q290.0247,1117.905,290.10455,1118.9868L290.50275,1122.4663L288.3047,1122.8645Q288.78967,1120.1538,284.3492,1116.9205Q282.40182,1115.8253,281.85806,1117.4994Q281.08948,1120.9904,282.87775,1127.3446Q283.4399,1129.1117,284.15024,1130.0153Q284.51904,1130.6368,286.39105,1131.8287Q286.6808,1132.0829,286.89767,1132.464Q287.42722,1133.4855,287.55106,1135.3416Q288.0215,1142.6255,284.25488,1149.7814L299.48325,1155.3812L308.2269,1169.4725L311.82715,1157.0853L312.72073,1148.167Q317.65298,1143.2078,321.14444,1131.6648Q321.49432,1130.1973,321.601,1128.6633L321.79282,1122.3792L322.3647,1114.7913Q322.5299,1111.6465,322.28247,1109.7695Q321.92932,1106.2107,319.38855,1105.6086Q318.6668,1105.4036,317.5028,1105.3743Q311.90466,1105.645,310.92737,1105.4089Q310.09045,1105.4434,302.7837,1103.7661Q301.07385,1103.4695,299.68173,1103.4753"/> </g> <g style="fill:rgb(0,0,0); fill-opacity:0.23529412; stroke-linejoin: miter"> <path d="M291.76047,1142.4417Q292.54135,1143.3755,291.77634,1142.4587 M292.1827,1142.9463L301.76184,1154.6251L311.61447,1148.6025Q306.09085,1151.3904,301.71332,1150.1279Q297.48666,1148.8708,292.2009,1142.9661"/> </g> <g style="fill:rgb(0,0,0); fill-opacity:0.11764706; stroke-linejoin: miter"> <path d="M274.70007,1180.8872L276.91196,1203.9402Q277.40967,1200.5667,277.49377,1198.5261Q277.60593,1196.23,277.38086,1193.8662Q276.93927,1189.2119,274.7022,1180.8945L274.70007,1180.8872 Z M343.94016,1188.8551L342.75928,1209.7256Q344.0532,1206.481,344.54095,1204.5598Q345.11685,1202.3608,345.2304,1200.2693Q345.47134,1196.0625,343.94308,1188.8693L343.94016,1188.8551 Z M318.79425,1231.782Q311.57874,1231.7456,300.948,1233.0605L338.5357,1234.0488L338.56802,1234.0496Q331.86118,1232.833,328.04733,1232.3872Q323.74423,1231.867,319.80814,1231.7935Q319.30984,1231.7847,318.79425,1231.782 Z M414.6453,1278.9696L402.02097,1296.6791Q407.5402,1292.3077,409.77377,1289.0502Q412.32614,1285.4825,414.6366,1278.995L414.6453,1278.9696 Z M352.77124,1290.3203L348.0867,1298.853Q349.9017,1298.2524,350.6863,1297.7227Q351.59753,1297.1387,352.07748,1296.2695Q353.0302,1294.5447,352.7719,1290.325L352.77124,1290.3203 Z M365.35434,1265.2866Q370.206,1267.4944,372.54382,1269.5037Q375.40976,1271.8553,377.34833,1275.4149Q380.8937,1281.4193,384.7678,1301.7284L383.09775,1273.2472L365.35617,1265.2866 Z M356.13818,1296.7144L350.83398,1304.5415L355.02826,1302.387L356.1359,1296.7261L356.13818,1296.7144 Z M405.2476,1343.1398L413.33002,1381.1615Q413.68744,1373.5463,413.49072,1369.588Q413.30518,1365.0443,412.47668,1361.1449Q410.8429,1353.4581,405.25488,1343.1522L405.2476,1343.1398 Z M416.68634,1380.8453Q429.08582,1388.2484,434.9693,1392.3016Q440.22852,1395.9008,442.35028,1398.5126L436.92798,1390.5536L436.90686,1390.5226L416.6886,1380.8453 Z M442.3589,1398.5231L444.0758,1401.0414Q443.18433,1399.5126,442.3792,1398.5475L442.3589,1398.5231 Z"/> </g> <g style="fill:rgb(255,255,255); fill-opacity:0.38431373; stroke-linejoin: miter"> <path d="M442.43884,1407.6066Q443.82422,1404.67,440.25208,1401.4323Q436.4641,1398.2164,430.3334,1396.9384Q423.39316,1395.6298,416.01288,1396.6031Q413.13214,1396.9979,411.29874,1397.7015Q409.91757,1398.225,408.0686,1399.8402Q407.652,1400.0609,407.07217,1400.0692Q406.25848,1400.0717,404.7398,1399.6674L396.30032,1397.1088Q393.98697,1396.462,392.53873,1396.2145Q387.85236,1395.4122,384.22842,1396.0128L384.69092,1398.3605Q386.1301,1400.9745,387.1914,1402.3961Q389.29074,1405.2155,392.20755,1406.6547Q393.0788,1407.0648,394.0479,1407.2247Q400.62723,1407.703,404.9819,1408.7075Q407.11908,1409.1948,409.23074,1409.8257L417.53836,1412.4817Q419.55826,1413.0603,421.46262,1413.4355Q427.57544,1414.6812,433.5628,1413.085Q440.4378,1411.1399,442.40717,1407.6647"/> </g> <g style="fill:rgb(206,209,227); fill-opacity:1.0; stroke-linejoin: miter"> <path d="M478.0453,1221.1008L520.1409,1221.1011L562.2365,1221.1012Q562.2365,1256.5033,562.2365,1291.905Q520.1409,1291.905,478.0453,1291.9053Q478.0453,1256.5032,478.0453,1221.1008"/> </g> </g> </svg>